<svg width="16" height="17" viewBox="0 0 16 17" fill="none" xmlns="http://www.w3.org/2000/svg">
<path d="M4.82812 8.44189L10.9531 2.27002C11.0365 2.16585 11.151 2.11377 11.2969 2.11377C11.4427 2.11377 11.5677 2.16585 11.6719 2.27002L12.4531 3.09814C12.5573 3.18148 12.6094 3.29606 12.6094 3.44189C12.6094 3.58773 12.5573 3.71273 12.4531 3.81689L7.54688 8.77002L12.4531 13.77C12.5573 13.8742 12.6094 13.9914 12.6094 14.1216C12.6094 14.2518 12.5573 14.369 12.4531 14.4731L11.6719 15.3169C11.5677 15.4211 11.4427 15.4731 11.2969 15.4731C11.151 15.4731 11.0365 15.4211 10.9531 15.3169L4.82812 9.14502C4.72396 9.04085 4.67188 8.92367 4.67188 8.79346C4.67188 8.66325 4.72396 8.54606 4.82812 8.44189Z" fill="#696969"/>
</svg>
